<svg width="1200" height="630" viewBox="0 0 1200 630" fill="none" xmlns="http://www.w3.org/2000/svg">
<g clip-path="url(#clip0_6_2)">
<path d="M1200 0H0V630H1200V0Z" fill="white"/>
<path d="M162.622 485V446.113H167.456V465.342H167.939L185.234 446.113H191.572L175.297 463.677L191.572 485H185.664L172.29 467.007L167.456 472.485V485H162.622ZM194.582 485V446.113H207.795C216.925 446.113 221.061 451.162 221.061 458.091C221.061 463.22 218.752 467.275 213.81 468.994L222.565 485H216.925L208.815 469.854L207.848 469.907H199.416V485H194.582ZM199.416 465.503H207.633C213.81 465.503 216.281 462.71 216.281 458.091C216.281 453.418 213.81 450.41 207.58 450.41H199.416V465.503ZM237.929 485H225.844V446.113H238.412C249.745 446.113 256.459 453.418 256.459 465.503C256.459 477.642 249.745 485 237.929 485ZM230.678 480.703H237.606C247.167 480.703 251.732 474.956 251.732 465.503C251.732 456.104 247.167 450.41 238.09 450.41H230.678V480.703ZM282.565 455.889C282.135 452.075 278.644 449.873 273.971 449.873C268.815 449.873 265.431 452.559 265.431 456.265C265.431 460.347 269.996 461.851 272.95 462.603L276.817 463.677C281.007 464.751 287.828 467.168 287.828 474.419C287.828 480.757 282.726 485.698 273.702 485.698C265.323 485.698 260.113 481.348 259.684 474.902H264.625C265.055 479.253 269.083 481.294 273.702 481.294C279.073 481.294 283.102 478.555 283.102 474.312C283.102 470.552 279.503 469.102 275.421 467.92L270.641 466.631C264.518 464.858 260.758 461.743 260.758 456.479C260.758 449.927 266.612 445.576 274.132 445.576C281.651 445.576 287.076 449.98 287.291 455.889H282.565ZM341.275 441.602V489.351H337.032V441.602H341.275ZM327.149 446.812C327.095 460.562 320.704 472.7 304.698 480.381L302.388 476.943C315.306 470.82 321.885 461.663 322.852 450.249H304.59V446.812H327.149ZM384.461 441.655V456.104H391.658V459.648H384.461V476.729H380.271V441.655H384.461ZM386.663 484.785V488.33H354.597V473.291H358.733V484.785H386.663ZM353.308 445.093V453.149H367.219V445.093H371.409V468.672H349.173V445.093H353.308ZM353.308 465.234H367.219V456.479H353.308V465.234ZM425.661 471.787C435.92 471.787 442.419 475.01 442.419 480.542C442.419 486.021 435.92 489.243 425.661 489.243C415.456 489.243 408.957 486.021 408.957 480.542C408.957 475.01 415.456 471.787 425.661 471.787ZM425.661 475.01C418.034 475.063 413.093 477.158 413.147 480.542C413.093 483.872 418.034 485.913 425.661 485.913C433.288 485.913 438.176 483.872 438.23 480.542C438.176 477.158 433.288 475.063 425.661 475.01ZM442.043 444.072V448.101C442.043 451.968 442.043 455.835 440.7 460.776L436.565 460.293C437.854 455.352 437.854 451.86 437.854 448.101V447.51H409.279V444.072H442.043ZM447.575 463.892V467.329H404.123V463.892H422.116V454.653H426.252V463.892H447.575ZM470.995 471.787C481.254 471.787 487.753 475.01 487.753 480.542C487.753 486.021 481.254 489.243 470.995 489.243C460.79 489.243 454.291 486.021 454.291 480.542C454.291 475.01 460.79 471.787 470.995 471.787ZM470.995 475.01C463.368 475.063 458.427 477.158 458.481 480.542C458.427 483.872 463.368 485.913 470.995 485.913C478.622 485.913 483.51 483.872 483.564 480.542C483.51 477.158 478.622 475.063 470.995 475.01ZM487.377 444.072V448.101C487.377 451.968 487.377 455.835 486.034 460.776L481.899 460.293C483.188 455.352 483.188 451.86 483.188 448.101V447.51H454.614V444.072H487.377ZM492.909 463.892V467.329H449.457V463.892H467.451V454.653H471.586V463.892H492.909ZM546.786 441.602V471.196H542.758V441.602H546.786ZM538.138 442.461V471.035H534.11V468.296H525.624V465.234H534.11V442.461H538.138ZM506.073 460.186C512.679 460.186 523.475 460.078 531.478 458.843L531.8 461.689C528.497 462.388 524.845 462.817 521.219 463.086V471.035H517.137V463.301C513.216 463.489 509.51 463.516 506.556 463.516L506.073 460.186ZM518.749 472.915V477.427H542.596V472.915H546.786V488.706H514.613V472.915H518.749ZM518.749 485.322H542.596V480.811H518.749V485.322ZM519.017 443.32C525.248 443.32 529.491 446.006 529.491 450.41C529.491 454.707 525.248 457.446 519.017 457.446C512.787 457.446 508.597 454.707 508.597 450.41C508.597 446.006 512.787 443.32 519.017 443.32ZM519.017 446.382C514.989 446.328 512.465 447.886 512.465 450.41C512.465 452.881 514.989 454.385 519.017 454.385C523.046 454.385 525.624 452.881 525.677 450.41C525.624 447.886 523.046 446.328 519.017 446.382ZM591.102 446.113H595.936V471.841C595.936 479.844 589.974 485.698 580.789 485.698C571.605 485.698 565.643 479.844 565.643 471.841V446.113H570.477V471.465C570.477 477.104 574.398 481.187 580.789 481.187C587.234 481.187 591.102 477.104 591.102 471.465V446.113ZM607.163 446.113V485H602.329V446.113H607.163ZM647.666 444.448C647.612 456.479 640.683 465.288 625.805 469.907L624.087 466.416C631.982 464.08 637.246 460.615 640.254 456.211L624.57 457.446L623.818 453.955L641.919 453.096C642.59 451.458 642.993 449.712 643.208 447.886H626.235V444.448H647.666ZM662.383 441.655V469.155H658.139V457.822H647.505V454.277H658.139V441.655H662.383ZM662.383 471.733V488.706H631.391V471.733H662.383ZM635.473 475.171V485.269H658.193V475.171H635.473ZM711.852 479.844V483.442H668.132V479.844H687.736V468.833H672.106V465.449H679.572V449.766H671.999V446.274H707.663V449.766H700.09V465.449H707.556V468.833H691.872V479.844H711.852ZM683.762 465.449H695.954V449.766H683.762V465.449ZM753.051 441.655V476.245H748.808V455.566H735.058V452.075H748.808V441.655H753.051ZM754.34 484.785V488.33H722.275V473.398H726.518V484.785H754.34ZM720.556 445.2V464.697C728.022 464.724 734.279 464.294 741.234 462.817L741.825 466.47C734.413 467.92 727.914 468.35 719.965 468.35H716.313V445.2H720.556ZM797.472 467.437V470.874H764.44V445.737H796.935V449.282H768.737V456.372H795.914V459.756H768.737V467.437H797.472ZM802.521 479.629V483.12H758.8V479.629H802.521ZM852.691 441.602V460.615H860.694V464.16H852.691V489.458H848.502V441.602H852.691ZM839.317 446.06V463.14H821.915V474.312C830.777 474.312 836.954 474.016 844.205 472.646L844.634 476.138C837.115 477.534 830.723 477.856 821.539 477.91H817.725V459.648H835.128V449.551H817.618V446.06H839.317ZM900.442 441.602V489.458H896.199V441.602H900.442ZM875.037 445.308C882.127 445.361 887.229 451.807 887.229 461.958C887.229 472.109 882.127 478.555 875.037 478.555C867.893 478.555 862.845 472.109 862.845 461.958C862.845 451.807 867.893 445.361 875.037 445.308ZM875.037 449.067C870.257 449.121 866.927 454.17 866.927 461.958C866.927 469.746 870.257 474.795 875.037 474.795C879.817 474.795 883.147 469.746 883.147 461.958C883.147 454.17 879.817 449.121 875.037 449.067ZM950.127 479.468V483.013H906.406V479.468H950.127ZM915.806 445.039V453.955H940.62V445.039H944.756V469.907H911.563V445.039H915.806ZM915.806 466.523H940.62V457.339H915.806V466.523ZM991.272 441.602V489.458H987.082V463.516H977.79V459.971H987.082V441.602H991.272ZM974.89 446.06V462.764H957.756V474.365C965.974 474.365 971.936 474.124 978.918 472.808L979.241 476.353C972.043 477.642 965.867 477.91 957.219 477.964H953.567V459.272H970.808V449.551H953.406V446.06H974.89ZM1036.5 441.602V489.458H1032.31V441.602H1036.5ZM1022 446.06V463.032H1004.16V474.312C1012.09 474.312 1019.15 473.962 1027.69 472.593L1028.12 476.138C1019.31 477.534 1012.06 477.856 1003.84 477.856H999.868V459.595H1017.75V449.551H999.76V446.06H1022Z" fill="#111827"/>
<rect x="128" y="189.5" width="183.75" height="183.75" rx="26.25" fill="#111827"/>
<rect x="154.25" y="215.75" width="133.875" height="133.875" rx="7.875" fill="white"/>
<rect x="172.625" y="234.125" width="39.375" height="39.375" fill="#0B50D0"/>
<rect x="230.375" y="234.125" width="39.375" height="39.375" fill="#111827"/>
<rect x="172.625" y="291.875" width="39.375" height="39.375" fill="#111827"/>
<rect x="230.375" y="291.875" width="39.375" height="39.375" fill="#111827"/>
<path d="M390.254 217.785H416.258V251.254H495.992V217.785H522.078V346H495.992V273.484H416.258V346H390.254V217.785ZM602.223 217.785H629.785L691.801 346H664.484L654.23 324.426H579.336L569.41 346H542.012L602.223 217.785ZM643.977 303.016L616.25 244.773L589.262 303.016H643.977ZM711.57 217.785H737.574L817.473 259.621V217.785H843.477V346H817.473V287.184L737.574 245.594V346H711.57V217.785ZM874.895 217.785H900.898V288.414C900.898 294.211 901.691 299.379 903.277 303.918C904.863 308.402 907.215 312.203 910.332 315.32C913.504 318.438 917.414 320.816 922.062 322.457C926.711 324.043 932.125 324.836 938.305 324.836C944.43 324.836 949.816 324.043 954.465 322.457C959.168 320.816 963.078 318.438 966.195 315.32C969.367 312.203 971.746 308.402 973.332 303.918C974.918 299.379 975.711 294.211 975.711 288.414V217.785H1001.71V291.531C1001.71 299.953 1000.29 307.609 997.449 314.5C994.605 321.391 990.477 327.297 985.062 332.219C979.648 337.141 973.004 340.941 965.129 343.621C957.309 346.301 948.367 347.641 938.305 347.641C928.242 347.641 919.273 346.301 911.398 343.621C903.578 340.941 896.961 337.141 891.547 332.219C886.133 327.297 882.004 321.391 879.16 314.5C876.316 307.609 874.895 299.953 874.895 291.531V217.785ZM1030.18 217.785H1056.35V346H1030.18V217.785Z" fill="#111827"/>
</g>
<defs>
<clipPath id="clip0_6_2">
<rect width="1200" height="630" fill="white"/>
</clipPath>
</defs>
</svg>
